<svg xmlns="http://www.w3.org/2000/svg" xmlns:xlink="http://www.w3.org/1999/xlink" version="1.1" preserveAspectRatio="none" x="0px" y="0px" viewBox="0 0 100 125"><defs><g id="a"><path fill="#000000" stroke="none" d=" M 87.25 92.55 Q 88.3046875 93.6861328125 89.85 93.75 91.38828125 93.8091796875 92.5 92.75 93.677734375 91.6958984375 93.75 90.15 93.80859375 88.603125 92.75 87.45 L 67.3 59.85 Q 73.7509765625 51.283203125 73.75 40 73.7490234375 25.9974609375 63.85 16.1 54.005859375 6.254296875 40 6.25 25.998046875 6.2564453125 16.1 16.1 6.2564453125 25.998046875 6.25 40 6.254296875 54.005859375 16.1 63.85 25.9974609375 73.7490234375 40 73.75 52.86796875 73.751171875 62.2 65.4 L 87.25 92.55 M 58.55 21.4 Q 66.251171875 29.102734375 66.25 40 66.248828125 50.8931640625 58.55 58.55 50.8931640625 66.248828125 40 66.25 29.102734375 66.251171875 21.4 58.55 13.7458984375 50.8943359375 13.75 40 13.7435546875 29.1017578125 21.4 21.4 29.1017578125 13.7435546875 40 13.75 50.8943359375 13.7458984375 58.55 21.4 Z"/></g></defs><g transform="matrix( 1, 0, 0, 1, 0,0) "><use xlink:href="#a"/></g><text x="0" y="115" fill="#000000" font-size="5px" font-weight="bold" font-family="'Helvetica Neue', Helvetica, Arial-Unicode, Arial, Sans-serif">Created by Richard Kunák</text><text x="0" y="120" fill="#000000" font-size="5px" font-weight="bold" font-family="'Helvetica Neue', Helvetica, Arial-Unicode, Arial, Sans-serif">from the Noun Project</text></svg>